<mxfile host="65bd71144e">
    <diagram id="xzKfJq7aABoRWpQAIAvF" name="1:1">
        <mxGraphModel dx="978" dy="571" grid="1" gridSize="10" guides="1" tooltips="1" connect="1" arrows="1" fold="1" page="1" pageScale="1" pageWidth="827" pageHeight="1169" math="0" shadow="0">
            <root>
                <mxCell id="0"/>
                <mxCell id="1" parent="0"/>
                <mxCell id="2" value="cats" style="whiteSpace=wrap;html=1;align=center;" parent="1" vertex="1">
                    <mxGeometry x="140" y="140" width="100" height="40" as="geometry"/>
                </mxCell>
                <mxCell id="4" value="cat_name" style="ellipse;whiteSpace=wrap;html=1;align=center;" parent="1" vertex="1">
                    <mxGeometry x="20" y="140" width="100" height="40" as="geometry"/>
                </mxCell>
                <mxCell id="5" value="fur_color" style="ellipse;whiteSpace=wrap;html=1;align=center;" parent="1" vertex="1">
                    <mxGeometry x="140" y="220" width="100" height="40" as="geometry"/>
                </mxCell>
                <mxCell id="6" value="id" style="ellipse;whiteSpace=wrap;html=1;align=center;fontStyle=4;" parent="1" vertex="1">
                    <mxGeometry x="140" y="60" width="100" height="40" as="geometry"/>
                </mxCell>
                <mxCell id="7" value="" style="endArrow=none;html=1;rounded=0;entryX=1;entryY=0.5;entryDx=0;entryDy=0;" parent="1" target="4" edge="1">
                    <mxGeometry relative="1" as="geometry">
                        <mxPoint x="140" y="160" as="sourcePoint"/>
                        <mxPoint x="400" y="170" as="targetPoint"/>
                    </mxGeometry>
                </mxCell>
                <mxCell id="8" value="" style="endArrow=none;html=1;rounded=0;exitX=0.5;exitY=1;exitDx=0;exitDy=0;entryX=0.5;entryY=0;entryDx=0;entryDy=0;" parent="1" source="2" target="5" edge="1">
                    <mxGeometry relative="1" as="geometry">
                        <mxPoint x="240" y="170" as="sourcePoint"/>
                        <mxPoint x="400" y="170" as="targetPoint"/>
                    </mxGeometry>
                </mxCell>
                <mxCell id="9" value="" style="endArrow=none;html=1;rounded=0;exitX=0.5;exitY=0;exitDx=0;exitDy=0;entryX=0.5;entryY=1;entryDx=0;entryDy=0;" parent="1" source="2" target="6" edge="1">
                    <mxGeometry relative="1" as="geometry">
                        <mxPoint x="240" y="170" as="sourcePoint"/>
                        <mxPoint x="400" y="170" as="targetPoint"/>
                    </mxGeometry>
                </mxCell>
                <mxCell id="10" value="servants" style="whiteSpace=wrap;html=1;align=center;" parent="1" vertex="1">
                    <mxGeometry x="440" y="140" width="100" height="40" as="geometry"/>
                </mxCell>
                <mxCell id="11" value="yrs_served" style="ellipse;whiteSpace=wrap;html=1;align=center;" parent="1" vertex="1">
                    <mxGeometry x="560" y="140" width="100" height="40" as="geometry"/>
                </mxCell>
                <mxCell id="12" value="servant_name" style="ellipse;whiteSpace=wrap;html=1;align=center;" parent="1" vertex="1">
                    <mxGeometry x="440" y="220" width="100" height="40" as="geometry"/>
                </mxCell>
                <mxCell id="13" value="id" style="ellipse;whiteSpace=wrap;html=1;align=center;fontStyle=4;" parent="1" vertex="1">
                    <mxGeometry x="440" y="60" width="100" height="40" as="geometry"/>
                </mxCell>
                <mxCell id="15" value="" style="endArrow=none;html=1;rounded=0;exitX=0.5;exitY=1;exitDx=0;exitDy=0;entryX=0.5;entryY=0;entryDx=0;entryDy=0;" parent="1" source="10" target="12" edge="1">
                    <mxGeometry relative="1" as="geometry">
                        <mxPoint x="540" y="170" as="sourcePoint"/>
                        <mxPoint x="700" y="170" as="targetPoint"/>
                    </mxGeometry>
                </mxCell>
                <mxCell id="16" value="" style="endArrow=none;html=1;rounded=0;exitX=0.5;exitY=0;exitDx=0;exitDy=0;entryX=0.5;entryY=1;entryDx=0;entryDy=0;" parent="1" source="10" target="13" edge="1">
                    <mxGeometry relative="1" as="geometry">
                        <mxPoint x="540" y="170" as="sourcePoint"/>
                        <mxPoint x="700" y="170" as="targetPoint"/>
                    </mxGeometry>
                </mxCell>
                <mxCell id="17" value="" style="endArrow=none;html=1;rounded=0;exitX=1;exitY=0.5;exitDx=0;exitDy=0;entryX=0;entryY=0.5;entryDx=0;entryDy=0;" parent="1" source="10" target="11" edge="1">
                    <mxGeometry relative="1" as="geometry">
                        <mxPoint x="500" y="150" as="sourcePoint"/>
                        <mxPoint x="500" y="110" as="targetPoint"/>
                    </mxGeometry>
                </mxCell>
                <mxCell id="18" value="has a" style="shape=rhombus;perimeter=rhombusPerimeter;whiteSpace=wrap;html=1;align=center;" parent="1" vertex="1">
                    <mxGeometry x="280" y="130" width="120" height="60" as="geometry"/>
                </mxCell>
                <mxCell id="19" value="" style="endArrow=none;html=1;rounded=0;exitX=1;exitY=0.5;exitDx=0;exitDy=0;" parent="1" source="2" edge="1">
                    <mxGeometry relative="1" as="geometry">
                        <mxPoint x="260" y="170" as="sourcePoint"/>
                        <mxPoint x="280" y="160" as="targetPoint"/>
                    </mxGeometry>
                </mxCell>
                <mxCell id="20" value="" style="endArrow=none;html=1;rounded=0;exitX=1;exitY=0.5;exitDx=0;exitDy=0;entryX=0;entryY=0.5;entryDx=0;entryDy=0;" parent="1" source="18" target="10" edge="1">
                    <mxGeometry relative="1" as="geometry">
                        <mxPoint x="250" y="170" as="sourcePoint"/>
                        <mxPoint x="290" y="170" as="targetPoint"/>
                    </mxGeometry>
                </mxCell>
                <mxCell id="21" value="1" style="text;strokeColor=none;fillColor=none;spacingLeft=4;spacingRight=4;overflow=hidden;rotatable=0;points=[[0,0.5],[1,0.5]];portConstraint=eastwest;fontSize=12;" parent="1" vertex="1">
                    <mxGeometry x="240" y="130" width="20" height="30" as="geometry"/>
                </mxCell>
                <mxCell id="22" value="1" style="text;strokeColor=none;fillColor=none;spacingLeft=4;spacingRight=4;overflow=hidden;rotatable=0;points=[[0,0.5],[1,0.5]];portConstraint=eastwest;fontSize=12;" parent="1" vertex="1">
                    <mxGeometry x="420" y="130" width="20" height="30" as="geometry"/>
                </mxCell>
            </root>
        </mxGraphModel>
    </diagram>
    <diagram name="1:n" id="yJmmUM_dsO5LWOXwPfPk">
        <mxGraphModel dx="629" dy="344" grid="1" gridSize="10" guides="1" tooltips="1" connect="1" arrows="1" fold="1" page="1" pageScale="1" pageWidth="827" pageHeight="1169" math="0" shadow="0">
            <root>
                <mxCell id="_UgtpEgB3KvTTVjqbSUW-0"/>
                <mxCell id="_UgtpEgB3KvTTVjqbSUW-1" parent="_UgtpEgB3KvTTVjqbSUW-0"/>
                <mxCell id="_UgtpEgB3KvTTVjqbSUW-2" value="cats" style="whiteSpace=wrap;html=1;align=center;" parent="_UgtpEgB3KvTTVjqbSUW-1" vertex="1">
                    <mxGeometry x="140" y="140" width="100" height="40" as="geometry"/>
                </mxCell>
                <mxCell id="_UgtpEgB3KvTTVjqbSUW-3" value="cat_name" style="ellipse;whiteSpace=wrap;html=1;align=center;" parent="_UgtpEgB3KvTTVjqbSUW-1" vertex="1">
                    <mxGeometry x="20" y="140" width="100" height="40" as="geometry"/>
                </mxCell>
                <mxCell id="_UgtpEgB3KvTTVjqbSUW-4" value="fur_color" style="ellipse;whiteSpace=wrap;html=1;align=center;" parent="_UgtpEgB3KvTTVjqbSUW-1" vertex="1">
                    <mxGeometry x="140" y="220" width="100" height="40" as="geometry"/>
                </mxCell>
                <mxCell id="_UgtpEgB3KvTTVjqbSUW-5" value="id" style="ellipse;whiteSpace=wrap;html=1;align=center;fontStyle=4;" parent="_UgtpEgB3KvTTVjqbSUW-1" vertex="1">
                    <mxGeometry x="140" y="60" width="100" height="40" as="geometry"/>
                </mxCell>
                <mxCell id="_UgtpEgB3KvTTVjqbSUW-6" value="" style="endArrow=none;html=1;rounded=0;entryX=1;entryY=0.5;entryDx=0;entryDy=0;" parent="_UgtpEgB3KvTTVjqbSUW-1" target="_UgtpEgB3KvTTVjqbSUW-3" edge="1">
                    <mxGeometry relative="1" as="geometry">
                        <mxPoint x="140" y="160" as="sourcePoint"/>
                        <mxPoint x="400" y="170" as="targetPoint"/>
                    </mxGeometry>
                </mxCell>
                <mxCell id="_UgtpEgB3KvTTVjqbSUW-7" value="" style="endArrow=none;html=1;rounded=0;exitX=0.5;exitY=1;exitDx=0;exitDy=0;entryX=0.5;entryY=0;entryDx=0;entryDy=0;" parent="_UgtpEgB3KvTTVjqbSUW-1" source="_UgtpEgB3KvTTVjqbSUW-2" target="_UgtpEgB3KvTTVjqbSUW-4" edge="1">
                    <mxGeometry relative="1" as="geometry">
                        <mxPoint x="240" y="170" as="sourcePoint"/>
                        <mxPoint x="400" y="170" as="targetPoint"/>
                    </mxGeometry>
                </mxCell>
                <mxCell id="_UgtpEgB3KvTTVjqbSUW-8" value="" style="endArrow=none;html=1;rounded=0;exitX=0.5;exitY=0;exitDx=0;exitDy=0;entryX=0.5;entryY=1;entryDx=0;entryDy=0;" parent="_UgtpEgB3KvTTVjqbSUW-1" source="_UgtpEgB3KvTTVjqbSUW-2" target="_UgtpEgB3KvTTVjqbSUW-5" edge="1">
                    <mxGeometry relative="1" as="geometry">
                        <mxPoint x="240" y="170" as="sourcePoint"/>
                        <mxPoint x="400" y="170" as="targetPoint"/>
                    </mxGeometry>
                </mxCell>
                <mxCell id="_UgtpEgB3KvTTVjqbSUW-9" value="kittens" style="whiteSpace=wrap;html=1;align=center;" parent="_UgtpEgB3KvTTVjqbSUW-1" vertex="1">
                    <mxGeometry x="440" y="140" width="100" height="40" as="geometry"/>
                </mxCell>
                <mxCell id="_UgtpEgB3KvTTVjqbSUW-10" value="kitten_name" style="ellipse;whiteSpace=wrap;html=1;align=center;" parent="_UgtpEgB3KvTTVjqbSUW-1" vertex="1">
                    <mxGeometry x="560" y="140" width="100" height="40" as="geometry"/>
                </mxCell>
                <mxCell id="_UgtpEgB3KvTTVjqbSUW-11" value="fur_color" style="ellipse;whiteSpace=wrap;html=1;align=center;" parent="_UgtpEgB3KvTTVjqbSUW-1" vertex="1">
                    <mxGeometry x="440" y="220" width="100" height="40" as="geometry"/>
                </mxCell>
                <mxCell id="_UgtpEgB3KvTTVjqbSUW-12" value="id" style="ellipse;whiteSpace=wrap;html=1;align=center;fontStyle=4;" parent="_UgtpEgB3KvTTVjqbSUW-1" vertex="1">
                    <mxGeometry x="440" y="60" width="100" height="40" as="geometry"/>
                </mxCell>
                <mxCell id="_UgtpEgB3KvTTVjqbSUW-13" value="" style="endArrow=none;html=1;rounded=0;exitX=0.5;exitY=1;exitDx=0;exitDy=0;entryX=0.5;entryY=0;entryDx=0;entryDy=0;" parent="_UgtpEgB3KvTTVjqbSUW-1" source="_UgtpEgB3KvTTVjqbSUW-9" target="_UgtpEgB3KvTTVjqbSUW-11" edge="1">
                    <mxGeometry relative="1" as="geometry">
                        <mxPoint x="540" y="170" as="sourcePoint"/>
                        <mxPoint x="700" y="170" as="targetPoint"/>
                    </mxGeometry>
                </mxCell>
                <mxCell id="_UgtpEgB3KvTTVjqbSUW-14" value="" style="endArrow=none;html=1;rounded=0;exitX=0.5;exitY=0;exitDx=0;exitDy=0;entryX=0.5;entryY=1;entryDx=0;entryDy=0;" parent="_UgtpEgB3KvTTVjqbSUW-1" source="_UgtpEgB3KvTTVjqbSUW-9" target="_UgtpEgB3KvTTVjqbSUW-12" edge="1">
                    <mxGeometry relative="1" as="geometry">
                        <mxPoint x="540" y="170" as="sourcePoint"/>
                        <mxPoint x="700" y="170" as="targetPoint"/>
                    </mxGeometry>
                </mxCell>
                <mxCell id="_UgtpEgB3KvTTVjqbSUW-15" value="" style="endArrow=none;html=1;rounded=0;exitX=1;exitY=0.5;exitDx=0;exitDy=0;entryX=0;entryY=0.5;entryDx=0;entryDy=0;" parent="_UgtpEgB3KvTTVjqbSUW-1" source="_UgtpEgB3KvTTVjqbSUW-9" target="_UgtpEgB3KvTTVjqbSUW-10" edge="1">
                    <mxGeometry relative="1" as="geometry">
                        <mxPoint x="500" y="150" as="sourcePoint"/>
                        <mxPoint x="500" y="110" as="targetPoint"/>
                    </mxGeometry>
                </mxCell>
                <mxCell id="_UgtpEgB3KvTTVjqbSUW-16" value="has a" style="shape=rhombus;perimeter=rhombusPerimeter;whiteSpace=wrap;html=1;align=center;" parent="_UgtpEgB3KvTTVjqbSUW-1" vertex="1">
                    <mxGeometry x="280" y="130" width="120" height="60" as="geometry"/>
                </mxCell>
                <mxCell id="_UgtpEgB3KvTTVjqbSUW-17" value="" style="endArrow=none;html=1;rounded=0;exitX=1;exitY=0.5;exitDx=0;exitDy=0;" parent="_UgtpEgB3KvTTVjqbSUW-1" source="_UgtpEgB3KvTTVjqbSUW-2" edge="1">
                    <mxGeometry relative="1" as="geometry">
                        <mxPoint x="260" y="170" as="sourcePoint"/>
                        <mxPoint x="280" y="160" as="targetPoint"/>
                    </mxGeometry>
                </mxCell>
                <mxCell id="_UgtpEgB3KvTTVjqbSUW-18" value="" style="endArrow=none;html=1;rounded=0;exitX=1;exitY=0.5;exitDx=0;exitDy=0;entryX=0;entryY=0.5;entryDx=0;entryDy=0;" parent="_UgtpEgB3KvTTVjqbSUW-1" source="_UgtpEgB3KvTTVjqbSUW-16" target="_UgtpEgB3KvTTVjqbSUW-9" edge="1">
                    <mxGeometry relative="1" as="geometry">
                        <mxPoint x="250" y="170" as="sourcePoint"/>
                        <mxPoint x="290" y="170" as="targetPoint"/>
                    </mxGeometry>
                </mxCell>
                <mxCell id="_UgtpEgB3KvTTVjqbSUW-19" value="1" style="text;strokeColor=none;fillColor=none;spacingLeft=4;spacingRight=4;overflow=hidden;rotatable=0;points=[[0,0.5],[1,0.5]];portConstraint=eastwest;fontSize=12;" parent="_UgtpEgB3KvTTVjqbSUW-1" vertex="1">
                    <mxGeometry x="240" y="130" width="20" height="30" as="geometry"/>
                </mxCell>
                <mxCell id="_UgtpEgB3KvTTVjqbSUW-20" value="n" style="text;strokeColor=none;fillColor=none;spacingLeft=4;spacingRight=4;overflow=hidden;rotatable=0;points=[[0,0.5],[1,0.5]];portConstraint=eastwest;fontSize=12;" parent="_UgtpEgB3KvTTVjqbSUW-1" vertex="1">
                    <mxGeometry x="420" y="130" width="20" height="30" as="geometry"/>
                </mxCell>
            </root>
        </mxGraphModel>
    </diagram>
    <diagram name="n:m" id="yRj2U_ggebaKrJ7kZNc0">
        <mxGraphModel dx="629" dy="344" grid="1" gridSize="10" guides="1" tooltips="1" connect="1" arrows="1" fold="1" page="1" pageScale="1" pageWidth="827" pageHeight="1169" math="0" shadow="0">
            <root>
                <mxCell id="uWyQYZWbzuDhk1i8MOqG-0"/>
                <mxCell id="uWyQYZWbzuDhk1i8MOqG-1" parent="uWyQYZWbzuDhk1i8MOqG-0"/>
                <mxCell id="uWyQYZWbzuDhk1i8MOqG-2" value="servants" style="whiteSpace=wrap;html=1;align=center;" parent="uWyQYZWbzuDhk1i8MOqG-1" vertex="1">
                    <mxGeometry x="140" y="140" width="100" height="40" as="geometry"/>
                </mxCell>
                <mxCell id="uWyQYZWbzuDhk1i8MOqG-3" value="yrs_served" style="ellipse;whiteSpace=wrap;html=1;align=center;" parent="uWyQYZWbzuDhk1i8MOqG-1" vertex="1">
                    <mxGeometry x="20" y="140" width="100" height="40" as="geometry"/>
                </mxCell>
                <mxCell id="uWyQYZWbzuDhk1i8MOqG-4" value="servant_name" style="ellipse;whiteSpace=wrap;html=1;align=center;" parent="uWyQYZWbzuDhk1i8MOqG-1" vertex="1">
                    <mxGeometry x="140" y="220" width="100" height="40" as="geometry"/>
                </mxCell>
                <mxCell id="uWyQYZWbzuDhk1i8MOqG-5" value="id" style="ellipse;whiteSpace=wrap;html=1;align=center;fontStyle=4;" parent="uWyQYZWbzuDhk1i8MOqG-1" vertex="1">
                    <mxGeometry x="140" y="60" width="100" height="40" as="geometry"/>
                </mxCell>
                <mxCell id="uWyQYZWbzuDhk1i8MOqG-6" value="" style="endArrow=none;html=1;rounded=0;entryX=1;entryY=0.5;entryDx=0;entryDy=0;" parent="uWyQYZWbzuDhk1i8MOqG-1" target="uWyQYZWbzuDhk1i8MOqG-3" edge="1">
                    <mxGeometry relative="1" as="geometry">
                        <mxPoint x="140" y="160" as="sourcePoint"/>
                        <mxPoint x="400" y="170" as="targetPoint"/>
                    </mxGeometry>
                </mxCell>
                <mxCell id="uWyQYZWbzuDhk1i8MOqG-7" value="" style="endArrow=none;html=1;rounded=0;exitX=0.5;exitY=1;exitDx=0;exitDy=0;entryX=0.5;entryY=0;entryDx=0;entryDy=0;" parent="uWyQYZWbzuDhk1i8MOqG-1" source="uWyQYZWbzuDhk1i8MOqG-2" target="uWyQYZWbzuDhk1i8MOqG-4" edge="1">
                    <mxGeometry relative="1" as="geometry">
                        <mxPoint x="240" y="170" as="sourcePoint"/>
                        <mxPoint x="400" y="170" as="targetPoint"/>
                    </mxGeometry>
                </mxCell>
                <mxCell id="uWyQYZWbzuDhk1i8MOqG-8" value="" style="endArrow=none;html=1;rounded=0;exitX=0.5;exitY=0;exitDx=0;exitDy=0;entryX=0.5;entryY=1;entryDx=0;entryDy=0;" parent="uWyQYZWbzuDhk1i8MOqG-1" source="uWyQYZWbzuDhk1i8MOqG-2" target="uWyQYZWbzuDhk1i8MOqG-5" edge="1">
                    <mxGeometry relative="1" as="geometry">
                        <mxPoint x="240" y="170" as="sourcePoint"/>
                        <mxPoint x="400" y="170" as="targetPoint"/>
                    </mxGeometry>
                </mxCell>
                <mxCell id="uWyQYZWbzuDhk1i8MOqG-9" value="products" style="whiteSpace=wrap;html=1;align=center;" parent="uWyQYZWbzuDhk1i8MOqG-1" vertex="1">
                    <mxGeometry x="440" y="140" width="100" height="40" as="geometry"/>
                </mxCell>
                <mxCell id="uWyQYZWbzuDhk1i8MOqG-10" value="product_name" style="ellipse;whiteSpace=wrap;html=1;align=center;" parent="uWyQYZWbzuDhk1i8MOqG-1" vertex="1">
                    <mxGeometry x="560" y="140" width="100" height="40" as="geometry"/>
                </mxCell>
                <mxCell id="uWyQYZWbzuDhk1i8MOqG-11" value="product_price" style="ellipse;whiteSpace=wrap;html=1;align=center;" parent="uWyQYZWbzuDhk1i8MOqG-1" vertex="1">
                    <mxGeometry x="440" y="220" width="100" height="40" as="geometry"/>
                </mxCell>
                <mxCell id="uWyQYZWbzuDhk1i8MOqG-12" value="id" style="ellipse;whiteSpace=wrap;html=1;align=center;fontStyle=4;" parent="uWyQYZWbzuDhk1i8MOqG-1" vertex="1">
                    <mxGeometry x="440" y="60" width="100" height="40" as="geometry"/>
                </mxCell>
                <mxCell id="uWyQYZWbzuDhk1i8MOqG-13" value="" style="endArrow=none;html=1;rounded=0;exitX=0.5;exitY=1;exitDx=0;exitDy=0;entryX=0.5;entryY=0;entryDx=0;entryDy=0;" parent="uWyQYZWbzuDhk1i8MOqG-1" source="uWyQYZWbzuDhk1i8MOqG-9" target="uWyQYZWbzuDhk1i8MOqG-11" edge="1">
                    <mxGeometry relative="1" as="geometry">
                        <mxPoint x="540" y="170" as="sourcePoint"/>
                        <mxPoint x="700" y="170" as="targetPoint"/>
                    </mxGeometry>
                </mxCell>
                <mxCell id="uWyQYZWbzuDhk1i8MOqG-14" value="" style="endArrow=none;html=1;rounded=0;exitX=0.5;exitY=0;exitDx=0;exitDy=0;entryX=0.5;entryY=1;entryDx=0;entryDy=0;" parent="uWyQYZWbzuDhk1i8MOqG-1" source="uWyQYZWbzuDhk1i8MOqG-9" target="uWyQYZWbzuDhk1i8MOqG-12" edge="1">
                    <mxGeometry relative="1" as="geometry">
                        <mxPoint x="540" y="170" as="sourcePoint"/>
                        <mxPoint x="700" y="170" as="targetPoint"/>
                    </mxGeometry>
                </mxCell>
                <mxCell id="uWyQYZWbzuDhk1i8MOqG-15" value="" style="endArrow=none;html=1;rounded=0;exitX=1;exitY=0.5;exitDx=0;exitDy=0;entryX=0;entryY=0.5;entryDx=0;entryDy=0;" parent="uWyQYZWbzuDhk1i8MOqG-1" source="uWyQYZWbzuDhk1i8MOqG-9" target="uWyQYZWbzuDhk1i8MOqG-10" edge="1">
                    <mxGeometry relative="1" as="geometry">
                        <mxPoint x="500" y="150" as="sourcePoint"/>
                        <mxPoint x="500" y="110" as="targetPoint"/>
                    </mxGeometry>
                </mxCell>
                <mxCell id="uWyQYZWbzuDhk1i8MOqG-16" value="puchases" style="shape=rhombus;perimeter=rhombusPerimeter;whiteSpace=wrap;html=1;align=center;" parent="uWyQYZWbzuDhk1i8MOqG-1" vertex="1">
                    <mxGeometry x="280" y="130" width="120" height="60" as="geometry"/>
                </mxCell>
                <mxCell id="uWyQYZWbzuDhk1i8MOqG-17" value="" style="endArrow=none;html=1;rounded=0;exitX=1;exitY=0.5;exitDx=0;exitDy=0;" parent="uWyQYZWbzuDhk1i8MOqG-1" source="uWyQYZWbzuDhk1i8MOqG-2" edge="1">
                    <mxGeometry relative="1" as="geometry">
                        <mxPoint x="260" y="170" as="sourcePoint"/>
                        <mxPoint x="280" y="160" as="targetPoint"/>
                    </mxGeometry>
                </mxCell>
                <mxCell id="uWyQYZWbzuDhk1i8MOqG-18" value="" style="endArrow=none;html=1;rounded=0;exitX=1;exitY=0.5;exitDx=0;exitDy=0;entryX=0;entryY=0.5;entryDx=0;entryDy=0;" parent="uWyQYZWbzuDhk1i8MOqG-1" source="uWyQYZWbzuDhk1i8MOqG-16" target="uWyQYZWbzuDhk1i8MOqG-9" edge="1">
                    <mxGeometry relative="1" as="geometry">
                        <mxPoint x="250" y="170" as="sourcePoint"/>
                        <mxPoint x="290" y="170" as="targetPoint"/>
                    </mxGeometry>
                </mxCell>
                <mxCell id="uWyQYZWbzuDhk1i8MOqG-19" value="n" style="text;strokeColor=none;fillColor=none;spacingLeft=4;spacingRight=4;overflow=hidden;rotatable=0;points=[[0,0.5],[1,0.5]];portConstraint=eastwest;fontSize=12;" parent="uWyQYZWbzuDhk1i8MOqG-1" vertex="1">
                    <mxGeometry x="240" y="130" width="20" height="30" as="geometry"/>
                </mxCell>
                <mxCell id="uWyQYZWbzuDhk1i8MOqG-20" value="m" style="text;strokeColor=none;fillColor=none;spacingLeft=4;spacingRight=4;overflow=hidden;rotatable=0;points=[[0,0.5],[1,0.5]];portConstraint=eastwest;fontSize=12;" parent="uWyQYZWbzuDhk1i8MOqG-1" vertex="1">
                    <mxGeometry x="420" y="130" width="20" height="30" as="geometry"/>
                </mxCell>
            </root>
        </mxGraphModel>
    </diagram>
    <diagram name="cats-servants-products" id="CajTrwVTO6zbYZuHnw_D">
        <mxGraphModel dx="978" dy="571" grid="1" gridSize="10" guides="1" tooltips="1" connect="1" arrows="1" fold="1" page="1" pageScale="1" pageWidth="827" pageHeight="1169" math="0" shadow="0">
            <root>
                <mxCell id="qqzDLot_Od1ZcfjtG4I7-0"/>
                <mxCell id="qqzDLot_Od1ZcfjtG4I7-1" parent="qqzDLot_Od1ZcfjtG4I7-0"/>
                <mxCell id="qqzDLot_Od1ZcfjtG4I7-2" value="servants" style="whiteSpace=wrap;html=1;align=center;" parent="qqzDLot_Od1ZcfjtG4I7-1" vertex="1">
                    <mxGeometry x="120" y="160" width="120" height="40" as="geometry"/>
                </mxCell>
                <mxCell id="qqzDLot_Od1ZcfjtG4I7-3" value="yrs_served" style="ellipse;whiteSpace=wrap;html=1;align=center;" parent="qqzDLot_Od1ZcfjtG4I7-1" vertex="1">
                    <mxGeometry x="110" y="20" width="100" height="40" as="geometry"/>
                </mxCell>
                <mxCell id="qqzDLot_Od1ZcfjtG4I7-4" value="servant_name" style="ellipse;whiteSpace=wrap;html=1;align=center;" parent="qqzDLot_Od1ZcfjtG4I7-1" vertex="1">
                    <mxGeometry x="40" y="70" width="100" height="40" as="geometry"/>
                </mxCell>
                <mxCell id="qqzDLot_Od1ZcfjtG4I7-5" value="id" style="ellipse;whiteSpace=wrap;html=1;align=center;fontStyle=4;" parent="qqzDLot_Od1ZcfjtG4I7-1" vertex="1">
                    <mxGeometry x="200" y="60" width="100" height="40" as="geometry"/>
                </mxCell>
                <mxCell id="qqzDLot_Od1ZcfjtG4I7-7" value="" style="endArrow=none;html=1;rounded=0;entryX=0.5;entryY=1;entryDx=0;entryDy=0;exitX=0.394;exitY=0.007;exitDx=0;exitDy=0;exitPerimeter=0;" parent="qqzDLot_Od1ZcfjtG4I7-1" source="qqzDLot_Od1ZcfjtG4I7-2" target="qqzDLot_Od1ZcfjtG4I7-4" edge="1">
                    <mxGeometry relative="1" as="geometry">
                        <mxPoint x="120" y="190" as="sourcePoint"/>
                        <mxPoint x="400" y="170" as="targetPoint"/>
                    </mxGeometry>
                </mxCell>
                <mxCell id="qqzDLot_Od1ZcfjtG4I7-8" value="" style="endArrow=none;html=1;rounded=0;exitX=0.5;exitY=0;exitDx=0;exitDy=0;entryX=0.5;entryY=1;entryDx=0;entryDy=0;" parent="qqzDLot_Od1ZcfjtG4I7-1" source="qqzDLot_Od1ZcfjtG4I7-2" target="qqzDLot_Od1ZcfjtG4I7-5" edge="1">
                    <mxGeometry relative="1" as="geometry">
                        <mxPoint x="240" y="170" as="sourcePoint"/>
                        <mxPoint x="400" y="170" as="targetPoint"/>
                    </mxGeometry>
                </mxCell>
                <mxCell id="qqzDLot_Od1ZcfjtG4I7-9" value="products" style="whiteSpace=wrap;html=1;align=center;" parent="qqzDLot_Od1ZcfjtG4I7-1" vertex="1">
                    <mxGeometry x="440" y="160" width="120" height="40" as="geometry"/>
                </mxCell>
                <mxCell id="qqzDLot_Od1ZcfjtG4I7-10" value="product_name" style="ellipse;whiteSpace=wrap;html=1;align=center;" parent="qqzDLot_Od1ZcfjtG4I7-1" vertex="1">
                    <mxGeometry x="660" y="160" width="100" height="40" as="geometry"/>
                </mxCell>
                <mxCell id="qqzDLot_Od1ZcfjtG4I7-11" value="product_price" style="ellipse;whiteSpace=wrap;html=1;align=center;" parent="qqzDLot_Od1ZcfjtG4I7-1" vertex="1">
                    <mxGeometry x="680" y="230" width="100" height="40" as="geometry"/>
                </mxCell>
                <mxCell id="qqzDLot_Od1ZcfjtG4I7-12" value="id" style="ellipse;whiteSpace=wrap;html=1;align=center;fontStyle=4;" parent="qqzDLot_Od1ZcfjtG4I7-1" vertex="1">
                    <mxGeometry x="660" y="80" width="100" height="40" as="geometry"/>
                </mxCell>
                <mxCell id="qqzDLot_Od1ZcfjtG4I7-13" value="" style="endArrow=none;html=1;rounded=0;entryX=0;entryY=0.5;entryDx=0;entryDy=0;exitX=1;exitY=0.5;exitDx=0;exitDy=0;" parent="qqzDLot_Od1ZcfjtG4I7-1" source="qqzDLot_Od1ZcfjtG4I7-9" target="qqzDLot_Od1ZcfjtG4I7-11" edge="1">
                    <mxGeometry relative="1" as="geometry">
                        <mxPoint x="630" y="240" as="sourcePoint"/>
                        <mxPoint x="700" y="170" as="targetPoint"/>
                    </mxGeometry>
                </mxCell>
                <mxCell id="qqzDLot_Od1ZcfjtG4I7-14" value="" style="endArrow=none;html=1;rounded=0;exitX=1;exitY=0.5;exitDx=0;exitDy=0;entryX=0;entryY=0.5;entryDx=0;entryDy=0;" parent="qqzDLot_Od1ZcfjtG4I7-1" source="qqzDLot_Od1ZcfjtG4I7-9" target="qqzDLot_Od1ZcfjtG4I7-12" edge="1">
                    <mxGeometry relative="1" as="geometry">
                        <mxPoint x="540" y="170" as="sourcePoint"/>
                        <mxPoint x="700" y="170" as="targetPoint"/>
                    </mxGeometry>
                </mxCell>
                <mxCell id="qqzDLot_Od1ZcfjtG4I7-15" value="" style="endArrow=none;html=1;rounded=0;exitX=1;exitY=0.5;exitDx=0;exitDy=0;entryX=0;entryY=0.5;entryDx=0;entryDy=0;" parent="qqzDLot_Od1ZcfjtG4I7-1" source="qqzDLot_Od1ZcfjtG4I7-9" target="qqzDLot_Od1ZcfjtG4I7-10" edge="1">
                    <mxGeometry relative="1" as="geometry">
                        <mxPoint x="500" y="150" as="sourcePoint"/>
                        <mxPoint x="500" y="110" as="targetPoint"/>
                    </mxGeometry>
                </mxCell>
                <mxCell id="qqzDLot_Od1ZcfjtG4I7-16" value="puchases" style="shape=rhombus;perimeter=rhombusPerimeter;whiteSpace=wrap;html=1;align=center;" parent="qqzDLot_Od1ZcfjtG4I7-1" vertex="1">
                    <mxGeometry x="280" y="150" width="120" height="60" as="geometry"/>
                </mxCell>
                <mxCell id="qqzDLot_Od1ZcfjtG4I7-17" value="" style="endArrow=none;html=1;rounded=0;exitX=1;exitY=0.5;exitDx=0;exitDy=0;entryX=0;entryY=0.5;entryDx=0;entryDy=0;" parent="qqzDLot_Od1ZcfjtG4I7-1" source="qqzDLot_Od1ZcfjtG4I7-2" target="qqzDLot_Od1ZcfjtG4I7-16" edge="1">
                    <mxGeometry relative="1" as="geometry">
                        <mxPoint x="260" y="170" as="sourcePoint"/>
                        <mxPoint x="280" y="160" as="targetPoint"/>
                    </mxGeometry>
                </mxCell>
                <mxCell id="qqzDLot_Od1ZcfjtG4I7-18" value="" style="endArrow=none;html=1;rounded=0;exitX=1;exitY=0.5;exitDx=0;exitDy=0;entryX=0;entryY=0.5;entryDx=0;entryDy=0;" parent="qqzDLot_Od1ZcfjtG4I7-1" source="qqzDLot_Od1ZcfjtG4I7-16" target="qqzDLot_Od1ZcfjtG4I7-9" edge="1">
                    <mxGeometry relative="1" as="geometry">
                        <mxPoint x="250" y="170" as="sourcePoint"/>
                        <mxPoint x="290" y="170" as="targetPoint"/>
                    </mxGeometry>
                </mxCell>
                <mxCell id="qqzDLot_Od1ZcfjtG4I7-19" value="n" style="text;strokeColor=none;fillColor=none;spacingLeft=4;spacingRight=4;overflow=hidden;rotatable=0;points=[[0,0.5],[1,0.5]];portConstraint=eastwest;fontSize=12;" parent="qqzDLot_Od1ZcfjtG4I7-1" vertex="1">
                    <mxGeometry x="240" y="150" width="20" height="30" as="geometry"/>
                </mxCell>
                <mxCell id="qqzDLot_Od1ZcfjtG4I7-20" value="m" style="text;strokeColor=none;fillColor=none;spacingLeft=4;spacingRight=4;overflow=hidden;rotatable=0;points=[[0,0.5],[1,0.5]];portConstraint=eastwest;fontSize=12;" parent="qqzDLot_Od1ZcfjtG4I7-1" vertex="1">
                    <mxGeometry x="414" y="150" width="20" height="30" as="geometry"/>
                </mxCell>
                <mxCell id="jLYud0AUCTAPrKG7sIaU-12" style="edgeStyle=none;html=1;exitX=1;exitY=0.5;exitDx=0;exitDy=0;" parent="qqzDLot_Od1ZcfjtG4I7-1" source="jLYud0AUCTAPrKG7sIaU-0" edge="1">
                    <mxGeometry relative="1" as="geometry">
                        <mxPoint x="240" y="340" as="targetPoint"/>
                    </mxGeometry>
                </mxCell>
                <mxCell id="jLYud0AUCTAPrKG7sIaU-0" value="cats" style="whiteSpace=wrap;html=1;align=center;" parent="qqzDLot_Od1ZcfjtG4I7-1" vertex="1">
                    <mxGeometry x="120" y="320" width="120" height="40" as="geometry"/>
                </mxCell>
                <mxCell id="jLYud0AUCTAPrKG7sIaU-1" value="cat_name" style="ellipse;whiteSpace=wrap;html=1;align=center;" parent="qqzDLot_Od1ZcfjtG4I7-1" vertex="1">
                    <mxGeometry x="30" y="390" width="100" height="40" as="geometry"/>
                </mxCell>
                <mxCell id="jLYud0AUCTAPrKG7sIaU-2" value="fur_color" style="ellipse;whiteSpace=wrap;html=1;align=center;" parent="qqzDLot_Od1ZcfjtG4I7-1" vertex="1">
                    <mxGeometry x="150" y="390" width="100" height="40" as="geometry"/>
                </mxCell>
                <mxCell id="jLYud0AUCTAPrKG7sIaU-3" value="id" style="ellipse;whiteSpace=wrap;html=1;align=center;fontStyle=4;" parent="qqzDLot_Od1ZcfjtG4I7-1" vertex="1">
                    <mxGeometry x="270" y="400" width="100" height="40" as="geometry"/>
                </mxCell>
                <mxCell id="jLYud0AUCTAPrKG7sIaU-4" value="" style="endArrow=none;html=1;rounded=0;entryX=0.5;entryY=0;entryDx=0;entryDy=0;exitX=0.5;exitY=1;exitDx=0;exitDy=0;" parent="qqzDLot_Od1ZcfjtG4I7-1" source="jLYud0AUCTAPrKG7sIaU-0" target="jLYud0AUCTAPrKG7sIaU-1" edge="1">
                    <mxGeometry relative="1" as="geometry">
                        <mxPoint x="150" y="330" as="sourcePoint"/>
                        <mxPoint x="410" y="340" as="targetPoint"/>
                    </mxGeometry>
                </mxCell>
                <mxCell id="jLYud0AUCTAPrKG7sIaU-5" value="" style="endArrow=none;html=1;rounded=0;exitX=0.5;exitY=1;exitDx=0;exitDy=0;entryX=0.5;entryY=0;entryDx=0;entryDy=0;" parent="qqzDLot_Od1ZcfjtG4I7-1" source="jLYud0AUCTAPrKG7sIaU-0" target="jLYud0AUCTAPrKG7sIaU-2" edge="1">
                    <mxGeometry relative="1" as="geometry">
                        <mxPoint x="250" y="340" as="sourcePoint"/>
                        <mxPoint x="410" y="340" as="targetPoint"/>
                    </mxGeometry>
                </mxCell>
                <mxCell id="jLYud0AUCTAPrKG7sIaU-6" value="" style="endArrow=none;html=1;rounded=0;entryX=0.5;entryY=0;entryDx=0;entryDy=0;exitX=0.5;exitY=1;exitDx=0;exitDy=0;" parent="qqzDLot_Od1ZcfjtG4I7-1" source="jLYud0AUCTAPrKG7sIaU-0" target="jLYud0AUCTAPrKG7sIaU-3" edge="1">
                    <mxGeometry relative="1" as="geometry">
                        <mxPoint x="260" y="360" as="sourcePoint"/>
                        <mxPoint x="410" y="340" as="targetPoint"/>
                    </mxGeometry>
                </mxCell>
                <mxCell id="jLYud0AUCTAPrKG7sIaU-7" value="1" style="text;strokeColor=none;fillColor=none;spacingLeft=4;spacingRight=4;overflow=hidden;rotatable=0;points=[[0,0.5],[1,0.5]];portConstraint=eastwest;fontSize=12;" parent="qqzDLot_Od1ZcfjtG4I7-1" vertex="1">
                    <mxGeometry x="180" y="300" width="20" height="20" as="geometry"/>
                </mxCell>
                <mxCell id="jLYud0AUCTAPrKG7sIaU-8" value="has a" style="shape=rhombus;perimeter=rhombusPerimeter;whiteSpace=wrap;html=1;align=center;" parent="qqzDLot_Od1ZcfjtG4I7-1" vertex="1">
                    <mxGeometry x="120" y="230" width="120" height="60" as="geometry"/>
                </mxCell>
                <mxCell id="jLYud0AUCTAPrKG7sIaU-9" value="" style="endArrow=none;html=1;rounded=0;exitX=0.5;exitY=0;exitDx=0;exitDy=0;entryX=0.5;entryY=1;entryDx=0;entryDy=0;" parent="qqzDLot_Od1ZcfjtG4I7-1" source="qqzDLot_Od1ZcfjtG4I7-2" target="qqzDLot_Od1ZcfjtG4I7-3" edge="1">
                    <mxGeometry relative="1" as="geometry">
                        <mxPoint x="240" y="190" as="sourcePoint"/>
                        <mxPoint x="290" y="170" as="targetPoint"/>
                        <Array as="points">
                            <mxPoint x="170" y="110"/>
                        </Array>
                    </mxGeometry>
                </mxCell>
                <mxCell id="jLYud0AUCTAPrKG7sIaU-10" value="" style="endArrow=none;html=1;rounded=0;exitX=0.5;exitY=0;exitDx=0;exitDy=0;entryX=0.5;entryY=1;entryDx=0;entryDy=0;" parent="qqzDLot_Od1ZcfjtG4I7-1" source="jLYud0AUCTAPrKG7sIaU-8" target="qqzDLot_Od1ZcfjtG4I7-2" edge="1">
                    <mxGeometry relative="1" as="geometry">
                        <mxPoint x="225" y="250" as="sourcePoint"/>
                        <mxPoint x="275" y="230" as="targetPoint"/>
                    </mxGeometry>
                </mxCell>
                <mxCell id="jLYud0AUCTAPrKG7sIaU-11" value="" style="endArrow=none;html=1;rounded=0;exitX=0.5;exitY=0;exitDx=0;exitDy=0;entryX=0.5;entryY=1;entryDx=0;entryDy=0;" parent="qqzDLot_Od1ZcfjtG4I7-1" source="jLYud0AUCTAPrKG7sIaU-0" target="jLYud0AUCTAPrKG7sIaU-8" edge="1">
                    <mxGeometry relative="1" as="geometry">
                        <mxPoint x="235" y="260" as="sourcePoint"/>
                        <mxPoint x="285" y="240" as="targetPoint"/>
                    </mxGeometry>
                </mxCell>
                <mxCell id="jLYud0AUCTAPrKG7sIaU-13" value="1" style="text;strokeColor=none;fillColor=none;spacingLeft=4;spacingRight=4;overflow=hidden;rotatable=0;points=[[0,0.5],[1,0.5]];portConstraint=eastwest;fontSize=12;" parent="qqzDLot_Od1ZcfjtG4I7-1" vertex="1">
                    <mxGeometry x="180" y="200" width="20" height="20" as="geometry"/>
                </mxCell>
            </root>
        </mxGraphModel>
    </diagram>
</mxfile>